<?xml version="1.0" encoding="utf-8"?>
<!-- Generator: Adobe Illustrator 23.0.1, SVG Export Plug-In . SVG Version: 6.00 Build 0)  -->
<svg version="1.1" id="Layer_1" xmlns="http://www.w3.org/2000/svg" xmlns:xlink="http://www.w3.org/1999/xlink" x="0px" y="0px"
	 viewBox="0 0 335.2 98.3" style="enable-background:new 0 0 335.2 98.3;" xml:space="preserve">
<style type="text/css">
	.st0{fill:#491754;}
	.st1{clip-path:url(#SVGID_2_);fill:url(#SVGID_3_);}
	.st2{fill:#FFFFFF;}
</style>
<path class="st0" d="M319.8,60.6c2.4-2.2,4.4-4.6,5.9-7.3c1.5-2.6,2.5-5.2,3.2-7.7c0.7-2.3,0.9-4.7,0.7-7.1c-0.1-1-0.2-2-0.5-3
	c0.8-0.9,1.5-1.9,2.1-2.9c1.4-2.3,2.4-4.6,3-6.8l0-0.1c0.7-2.6,1-5.3,1-7.9c0-3.2-0.8-6.1-2.4-8.8v0c-1.6-2.8-4-5-7.2-6.6
	c-3-1.6-6.8-2.3-11.4-2.3h-52.8l-2.7,10c-0.1-0.2-0.2-0.4-0.3-0.6c-1.5-2.9-3.9-5.2-7.1-7c-3.1-1.7-6.9-2.5-11.7-2.5H205
	c-4.5,0-8.6,0.7-12.1,2.2c-3.2,1.3-6.1,3.1-8.5,5.3l2-7.5h-38.7h-5.3h-116l-10,36.7h40.3L9.4,63.4L0,98.3h325l9.8-36.6h-16.5
	C318.8,61.4,319.3,61,319.8,60.6 M209.2,28.5c0.2-0.1,0.5-0.2,0.7-0.3c0.2-0.1,0.3-0.1,0.4-0.1h13.3l-3.1,11.5c0,0-0.1,0-0.1,0.1
	c-0.2,0.1-0.4,0.2-0.7,0.3c-0.2,0.1-0.3,0.1-0.4,0.1H206L209.2,28.5C209.1,28.5,209.1,28.5,209.2,28.5 M263.7,28.1l-3.2,12H256
	l3.2-12H263.7z M143.2,28.1l-9,33.7H88.1l50.7-28.9l1.3-4.9H143.2z"/>
<g>
	<g>
		<defs>
			<polygon id="SVGID_1_" points="30.1,6 23.4,30.7 78.7,30.7 13.6,67.4 6.9,92.4 319.5,92.4 326.1,67.8 64.6,67.8 132.8,28.9 
				139,6 			"/>
		</defs>
		<clipPath id="SVGID_2_">
			<use xlink:href="#SVGID_1_"  style="overflow:visible;"/>
		</clipPath>
		
			<linearGradient id="SVGID_3_" gradientUnits="userSpaceOnUse" x1="-263.4479" y1="-598.7898" x2="-262.4479" y2="-598.7898" gradientTransform="matrix(187.8703 187.8703 -187.8703 187.8703 -62924.0625 161948.2344)">
			<stop  offset="0" style="stop-color:#FFC000"/>
			<stop  offset="0.1123" style="stop-color:#FFC103"/>
			<stop  offset="0.2072" style="stop-color:#FFC30E"/>
			<stop  offset="0.2959" style="stop-color:#FFC81F"/>
			<stop  offset="0.3807" style="stop-color:#FFCD38"/>
			<stop  offset="0.4628" style="stop-color:#FFD558"/>
			<stop  offset="0.5418" style="stop-color:#FFDE7E"/>
			<stop  offset="0.5876" style="stop-color:#FFE498"/>
			<stop  offset="0.609" style="stop-color:#FFE18C"/>
			<stop  offset="0.7039" style="stop-color:#FFD65A"/>
			<stop  offset="0.7935" style="stop-color:#FFCC33"/>
			<stop  offset="0.8753" style="stop-color:#FFC617"/>
			<stop  offset="0.9468" style="stop-color:#FFC206"/>
			<stop  offset="1" style="stop-color:#FFC000"/>
		</linearGradient>
		<polygon class="st1" points="166.5,-153.6 369.3,49.2 166.5,251.9 -36.3,49.2 		"/>
	</g>
</g>
<g>
	<polygon class="st2" points="162.6,62.1 139.4,62.1 150.1,22.1 141.7,22.1 146.1,6 177.7,6 	"/>
	<path class="st2" d="M238.7,6c3.7,0,6.7,0.6,8.8,1.7c2.1,1.2,3.7,2.7,4.7,4.5c1,1.8,1.5,3.9,1.5,6.1s-0.3,4.4-0.8,6.5L248,43.3
		c-0.6,2.1-1.5,4.3-2.7,6.5s-2.8,4.2-4.8,6.1s-4.3,3.3-7.1,4.5c-2.8,1.2-6,1.7-9.8,1.7H189c-3.7,0-6.7-0.6-8.8-1.7
		c-2.1-1.2-3.7-2.7-4.7-4.5c-1-1.8-1.5-3.9-1.5-6.1s0.3-4.4,0.9-6.5l4.9-18.5c0.5-2.1,1.4-4.3,2.6-6.5s2.8-4.2,4.8-6.1
		s4.3-3.4,7.1-4.5C197,6.6,200.3,6,204,6H238.7z M218.3,46.1c0.7,0,1.4-0.1,2.2-0.4s1.4-0.5,2-0.9s1.2-0.8,1.6-1.3
		c0.5-0.5,0.8-1,0.9-1.6l4.2-15.6c0.3-1.1,0-2-1-2.9s-2.1-1.3-3.6-1.3h-15.4c-0.7,0-1.4,0.1-2.2,0.4c-0.8,0.2-1.4,0.5-2,0.9
		s-1.2,0.8-1.6,1.3c-0.5,0.5-0.8,1-0.9,1.6l-4.2,15.6c-0.3,1.1,0,2,1,2.9s2.1,1.3,3.6,1.3H218.3z"/>
	<path class="st2" d="M326.7,12c-1-1.8-2.6-3.2-4.7-4.3S317,6,313.4,6h-48.2l-4.4,16h40.8c1,0,1.7,0.2,2.1,0.5
		c0.5,0.4,0.6,0.9,0.5,1.5l-0.9,3.4c-0.4,1.6-1.5,2-2.3,2.1h-32.4l-2.4,9H299c0.5,0.1,1.1,0.6,0.7,2l-0.9,3.5
		c-0.2,0.7-0.6,1.2-1.3,1.5c-0.7,0.4-1.5,0.5-2.4,0.5h-40.8l-4.3,16h48.2c3.6,0,6.8-0.5,9.5-1.6c2.7-1.1,5.1-2.5,7-4.3
		s3.5-3.7,4.7-5.8c1.2-2.1,2.1-4.3,2.6-6.3c0.5-1.7,0.7-3.4,0.5-5.2c-0.1-1.8-0.8-3.4-2-4.7c1.8-1.3,3.3-2.9,4.4-4.7
		c1.1-1.8,1.9-3.6,2.4-5.3c0.5-2.1,0.8-4.2,0.8-6.3C328.3,15.6,327.8,13.7,326.7,12"/>
</g>
</svg>
